<svg width="223" height="30" viewBox="0 0 223 30" fill="none" xmlns="http://www.w3.org/2000/svg">
<path d="M17.191 22.5629H10.2099C9.76385 21.2636 9.38571 20.197 9.07544 19.3632C8.76517 18.5099 8.49368 17.8409 8.26098 17.3561C8.02827 16.8713 7.78587 16.5223 7.53378 16.309C7.28168 16.0763 6.98111 15.9308 6.63205 15.8726C6.283 15.8145 5.83698 15.7854 5.29401 15.7854L6.89384 14.8546C8.17371 14.8546 9.23057 14.8933 10.0644 14.9709C10.9177 15.0291 11.6255 15.1842 12.1878 15.4363C12.7696 15.6884 13.3029 16.0859 13.7877 16.6289C14.2725 17.1719 14.7767 17.9282 15.3003 18.8978C15.8238 19.848 16.4541 21.0697 17.191 22.5629ZM7.2429 15.7563H5.29401L5.26492 12.1203H7.18472C8.1931 12.1203 8.96878 11.8973 9.51176 11.4513C10.0547 11.0053 10.3262 10.3168 10.3262 9.38602C10.3262 8.55217 10.0838 7.92193 9.59902 7.49531C9.13362 7.06868 8.36763 6.85537 7.30107 6.85537H5.0613V2.2013H6.54479C8.91061 2.2013 10.7916 2.46309 12.1878 2.98668C13.6035 3.51026 14.6215 4.26655 15.2421 5.25554C15.8626 6.22513 16.1729 7.38865 16.1729 8.74609C16.1729 10.3556 15.8045 11.684 15.0676 12.7311C14.3307 13.7589 13.2932 14.5249 11.9551 15.0291C10.6171 15.5139 9.04635 15.7563 7.2429 15.7563ZM5.81759 22.5629H0V2.2013H5.81759V22.5629Z" fill="#056842"/>
<path d="M25.1049 22.8537C23.476 22.8537 22.0604 22.5726 20.8581 22.0102C19.6558 21.4478 18.725 20.5946 18.0657 19.4505C17.4063 18.3063 17.0767 16.8713 17.0767 15.1454C17.0767 13.4196 17.4257 11.9458 18.1238 10.7241C18.8413 9.48298 19.8206 8.53278 21.0617 7.87345C22.3222 7.19473 23.7669 6.85537 25.3958 6.85537C27.0441 6.85537 28.4598 7.15595 29.6427 7.7571C30.845 8.33886 31.7758 9.22119 32.4351 10.4041C33.0944 11.587 33.4241 13.0899 33.4241 14.9127C33.4241 16.5417 33.0653 17.9573 32.3478 19.1596C31.6497 20.3425 30.6801 21.2539 29.439 21.8938C28.198 22.5338 26.7533 22.8537 25.1049 22.8537ZM25.1049 18.4906C25.6091 18.4906 26.0358 18.3548 26.3848 18.0833C26.7533 17.8118 27.0344 17.4143 27.2284 16.8907C27.4223 16.3671 27.5192 15.7175 27.5192 14.9418C27.5192 14.0886 27.4417 13.3905 27.2865 12.8475C27.1508 12.3045 26.9278 11.8973 26.6175 11.6258C26.3072 11.3543 25.9 11.2186 25.3958 11.2186C24.8916 11.2186 24.4553 11.3543 24.0869 11.6258C23.7378 11.8973 23.4663 12.3045 23.2724 12.8475C23.0785 13.3905 22.9815 14.0886 22.9815 14.9418C22.9815 15.7175 23.0494 16.3671 23.1851 16.8907C23.3403 17.4143 23.573 17.8118 23.8832 18.0833C24.1935 18.3548 24.6007 18.4906 25.1049 18.4906Z" fill="#056842"/>
<path d="M43.0977 22.8247C42.0505 22.8247 41.1003 22.6792 40.247 22.3883C39.3938 22.0975 38.6763 21.6611 38.0945 21.0794C37.4934 20.4782 37.0474 19.7025 36.7565 18.7523C36.4656 17.7827 36.3202 16.4641 36.3202 14.7964V8.92062L37.1928 4.09202H42.0505V15.0582C42.0505 16.338 42.2638 17.2107 42.6904 17.6761C43.1364 18.1221 43.6988 18.3451 44.3775 18.3451C44.7266 18.3451 45.0368 18.3354 45.3083 18.316C45.5798 18.2966 45.861 18.2675 46.1519 18.2288L45.861 22.5629C45.4926 22.6404 45.0465 22.6986 44.523 22.7374C44.0188 22.7956 43.5437 22.8247 43.0977 22.8247ZM38.3272 7.14625H45.861V11.5094H34.284V7.72801L38.3272 7.14625Z" fill="#056842"/>
<path d="M61.608 22.5629H56.8376L56.2559 19.5668V13.8074C56.2559 12.8766 55.8874 12.2754 55.1505 12.0039C54.433 11.7131 53.4149 11.5676 52.0963 11.5676C51.6115 11.5676 51.1073 11.587 50.5837 11.6258C50.0601 11.6646 49.4299 11.7228 48.693 11.8003L48.9839 7.14625C49.8565 7.04929 50.6225 6.98142 51.2818 6.94264C51.9605 6.88446 52.6974 6.85537 53.4925 6.85537C55.3153 6.85537 56.8279 7.06868 58.0302 7.49531C59.2325 7.92193 60.1246 8.64913 60.7063 9.6769C61.3075 10.7047 61.608 12.1203 61.608 13.9237V22.5629ZM51.7763 22.8537C50.4383 22.8537 49.3814 22.4659 48.6057 21.6902C47.8494 20.8952 47.4713 19.8286 47.4713 18.4906C47.4713 17.2301 47.83 16.1829 48.5476 15.3491C49.2651 14.4958 50.4286 13.8268 52.0381 13.342C53.6476 12.8378 55.7905 12.5081 58.4665 12.353L58.4084 15.7563C56.7794 15.8339 55.5577 15.9599 54.7433 16.1344C53.9288 16.309 53.3858 16.532 53.1144 16.8034C52.8623 17.0749 52.7362 17.3949 52.7362 17.7634C52.7362 18.1318 52.8332 18.4033 53.0271 18.5778C53.2404 18.7523 53.5119 18.8396 53.8416 18.8396C54.2682 18.8396 54.6657 18.7136 55.0342 18.4615C55.4026 18.2094 55.7032 17.87 55.9359 17.4434C56.1686 17.0168 56.2752 16.5417 56.2559 16.0181H57.5066C57.5066 17.5113 57.2642 18.7717 56.7794 19.7995C56.314 20.8079 55.645 21.5739 54.7724 22.0975C53.9191 22.6016 52.9204 22.8537 51.7763 22.8537Z" fill="#056842"/>
<path d="M68.576 22.8247C67.8003 22.8247 67.0731 22.7956 66.3944 22.7374C65.735 22.6986 65.0563 22.6404 64.3582 22.5629L64.1546 18.4033C64.7557 18.5002 65.3278 18.5778 65.8708 18.636C66.4332 18.6942 67.0149 18.7233 67.6161 18.7233C68.3723 18.7233 69.0026 18.6651 69.5068 18.5487C70.011 18.413 70.2631 18.19 70.2631 17.8797C70.2631 17.7634 70.2243 17.647 70.1467 17.5306C70.0691 17.4143 69.8752 17.2786 69.565 17.1234C69.2741 16.9489 68.799 16.7356 68.1396 16.4835C67.0731 16.0763 66.2198 15.6593 65.5799 15.2327C64.94 14.7867 64.4746 14.2728 64.1837 13.691C63.9122 13.1093 63.7765 12.3918 63.7765 11.5385C63.7765 10.2005 64.3582 9.08545 65.5217 8.19342C66.7046 7.30139 68.4208 6.85537 70.6703 6.85537C71.446 6.85537 72.1635 6.88446 72.8228 6.94264C73.5015 6.98142 74.1899 7.04929 74.888 7.14625L75.0917 11.2767C74.4905 11.1798 73.9184 11.1022 73.3755 11.044C72.8325 10.9859 72.2507 10.9568 71.6302 10.9568C70.9127 10.9568 70.3988 11.0149 70.0885 11.1313C69.7977 11.2283 69.6522 11.3931 69.6522 11.6258C69.6522 11.7615 69.7007 11.8876 69.7977 12.0039C69.8946 12.1203 70.1079 12.2657 70.4376 12.4403C70.7673 12.5954 71.2714 12.799 71.9502 13.0511C73.0555 13.4583 73.9088 13.8947 74.5099 14.3601C75.1304 14.8061 75.5571 15.3006 75.7898 15.8435C76.0225 16.3865 76.1388 17.0071 76.1388 17.7052C76.1388 19.3729 75.4504 20.6431 74.0736 21.5157C72.7161 22.3883 70.8836 22.8247 68.576 22.8247Z" fill="#056842"/>
<path d="M93.0053 22.5629H88.2349L87.3622 18.1997V0.456024H93.0053V22.5629ZM85.1806 6.91355C85.9563 6.91355 86.7902 7.0299 87.6822 7.2626C88.5742 7.47592 89.379 7.80558 90.0965 8.25159L87.6531 11.8003C87.3428 11.6452 87.052 11.5482 86.7805 11.5094C86.5284 11.4513 86.2375 11.4222 85.9078 11.4222C85.1322 11.4222 84.4825 11.6937 83.9589 12.2366C83.4548 12.7602 83.2027 13.6329 83.2027 14.8546C83.2027 15.8629 83.3869 16.6192 83.7553 17.1234C84.1432 17.6082 84.6377 17.8506 85.2388 17.8506C85.7236 17.8506 86.1308 17.744 86.4605 17.5306C86.8096 17.3173 87.1101 17.0555 87.3622 16.7453L88.933 17.9961C88.3318 19.5862 87.5755 20.7982 86.6641 21.632C85.7721 22.4465 84.5698 22.8537 83.0572 22.8537C81.3313 22.8537 79.9351 22.2235 78.8686 20.963C77.8214 19.7025 77.2978 17.8991 77.2978 15.5527C77.2978 13.691 77.6275 12.1203 78.2868 10.8404C78.9461 9.54116 79.8672 8.56187 81.0502 7.90254C82.2331 7.24321 83.6099 6.91355 85.1806 6.91355Z" fill="#056842"/>
<path d="M109.33 22.5629H104.56L103.978 19.5668V13.8074C103.978 12.8766 103.61 12.2754 102.873 12.0039C102.155 11.7131 101.137 11.5676 99.8187 11.5676C99.3339 11.5676 98.8297 11.587 98.3061 11.6258C97.7825 11.6646 97.1523 11.7228 96.4154 11.8003L96.7063 7.14625C97.5789 7.04929 98.3449 6.98142 99.0042 6.94264C99.683 6.88446 100.42 6.85537 101.215 6.85537C103.038 6.85537 104.55 7.06868 105.753 7.49531C106.955 7.92193 107.847 8.64913 108.429 9.6769C109.03 10.7047 109.33 12.1203 109.33 13.9237V22.5629ZM99.4987 22.8537C98.1607 22.8537 97.1038 22.4659 96.3281 21.6902C95.5719 20.8952 95.1937 19.8286 95.1937 18.4906C95.1937 17.2301 95.5525 16.1829 96.27 15.3491C96.9875 14.4958 98.151 13.8268 99.7605 13.342C101.37 12.8378 103.513 12.5081 106.189 12.353L106.131 15.7563C104.502 15.8339 103.28 15.9599 102.466 16.1344C101.651 16.309 101.108 16.532 100.837 16.8034C100.585 17.0749 100.459 17.3949 100.459 17.7634C100.459 18.1318 100.556 18.4033 100.75 18.5778C100.963 18.7523 101.234 18.8396 101.564 18.8396C101.991 18.8396 102.388 18.7136 102.757 18.4615C103.125 18.2094 103.426 17.87 103.658 17.4434C103.891 17.0168 103.998 16.5417 103.978 16.0181H105.229C105.229 17.5113 104.987 18.7717 104.502 19.7995C104.036 20.8079 103.367 21.5739 102.495 22.0975C101.642 22.6016 100.643 22.8537 99.4987 22.8537Z" fill="#056842"/>
<path d="M115.135 22.5629H111.761L115.309 2.2013H118.684L115.135 22.5629Z" fill="#056842"/>
<path d="M122.719 22.0684L119.344 22.5629L123.213 0.456024H126.5L122.719 22.0684ZM125.191 22.7956C124.435 22.7956 123.708 22.7083 123.01 22.5338C122.331 22.3592 121.691 22.1168 121.09 21.8066L122.69 19.5377C123.155 19.7316 123.582 19.8771 123.969 19.974C124.357 20.071 124.813 20.1195 125.337 20.1195C126.17 20.1195 126.917 19.9256 127.576 19.5377C128.236 19.1499 128.788 18.636 129.234 17.9961C129.7 17.3367 130.049 16.6192 130.281 15.8435C130.514 15.0485 130.631 14.2437 130.631 13.4292C130.631 12.3821 130.417 11.5967 129.991 11.0731C129.583 10.5302 128.992 10.2587 128.216 10.2587C127.499 10.2587 126.81 10.4817 126.151 10.9277C125.511 11.3737 124.891 12.0621 124.289 12.9929L123.417 12.0912C123.979 11.0246 124.571 10.1423 125.191 9.4442C125.812 8.74609 126.49 8.22251 127.227 7.87345C127.984 7.5244 128.817 7.34987 129.729 7.34987C131.047 7.34987 132.104 7.82497 132.899 8.77518C133.714 9.72538 134.092 11.1313 134.034 12.9929C133.995 14.4085 133.762 15.7175 133.336 16.9198C132.909 18.1027 132.318 19.1402 131.561 20.0322C130.805 20.9049 129.884 21.5836 128.798 22.0684C127.731 22.5532 126.529 22.7956 125.191 22.7956Z" fill="#056842"/>
<path d="M135.507 22.5629L138.154 7.64075H141.441L138.794 22.5629H135.507ZM140.539 5.16827C139.899 5.16827 139.395 4.99374 139.027 4.64469C138.658 4.29563 138.474 3.83023 138.474 3.24847C138.493 2.66671 138.687 2.2013 139.056 1.85225C139.424 1.50319 139.928 1.32866 140.568 1.32866C141.189 1.32866 141.683 1.50319 142.052 1.85225C142.42 2.2013 142.604 2.66671 142.604 3.24847C142.585 3.83023 142.391 4.29563 142.023 4.64469C141.654 4.99374 141.16 5.16827 140.539 5.16827Z" fill="#056842"/>
<path d="M154.99 22.5629H152.256L152.431 18.5196L154.263 8.13524L157.637 7.64075L154.99 22.5629ZM151.762 7.40804C152.537 7.40804 153.264 7.49531 153.943 7.66984C154.622 7.82497 155.272 8.05767 155.892 8.36795L154.263 10.6659C153.798 10.4526 153.371 10.3071 152.983 10.2296C152.595 10.1326 152.14 10.0841 151.616 10.0841C150.782 10.0841 150.036 10.2781 149.376 10.6659C148.717 11.0537 148.155 11.5676 147.689 12.2076C147.243 12.8475 146.904 13.565 146.671 14.3601C146.438 15.1551 146.322 15.9599 146.322 16.7744C146.322 17.8021 146.535 18.5875 146.962 19.1305C147.389 19.6735 147.98 19.9449 148.736 19.9449C149.454 19.9449 150.142 19.7219 150.802 19.2759C151.461 18.8299 152.082 18.1415 152.663 17.2107L153.536 18.1124C152.993 19.1596 152.402 20.0419 151.762 20.7594C151.141 21.4575 150.462 21.9811 149.725 22.3302C148.989 22.6598 148.155 22.8247 147.224 22.8247C145.905 22.8247 144.839 22.3496 144.024 21.3993C143.229 20.4491 142.861 19.0432 142.919 17.1816C142.958 15.766 143.19 14.4667 143.617 13.2838C144.044 12.1009 144.635 11.0731 145.391 10.2005C146.167 9.30846 147.088 8.62004 148.155 8.13524C149.221 7.65044 150.424 7.40804 151.762 7.40804Z" fill="#056842"/>
<path d="M161.321 29.544H158.034L161.845 7.64075H164.579L164.433 11.684L161.321 29.544ZM165.073 22.7956C164.317 22.7956 163.6 22.7083 162.921 22.5338C162.242 22.3592 161.593 22.1168 160.972 21.8066L162.572 19.5377C163.057 19.7316 163.483 19.8771 163.852 19.974C164.24 20.0516 164.705 20.0904 165.248 20.0904C166.082 20.0904 166.819 19.8965 167.459 19.5086C168.118 19.1208 168.68 18.6069 169.146 17.967C169.611 17.327 169.96 16.6095 170.193 15.8145C170.426 15.0194 170.542 14.2146 170.542 13.4002C170.542 12.3724 170.329 11.5967 169.902 11.0731C169.475 10.5302 168.884 10.2587 168.128 10.2587C167.391 10.2587 166.693 10.4817 166.033 10.9277C165.393 11.3737 164.773 12.0621 164.172 12.9929L163.328 12.0621C163.871 11.0149 164.453 10.1423 165.073 9.4442C165.694 8.74609 166.382 8.22251 167.139 7.87345C167.895 7.5244 168.729 7.34987 169.64 7.34987C170.959 7.34987 172.016 7.82497 172.811 8.77518C173.606 9.72538 173.974 11.1313 173.916 12.9929C173.877 14.4085 173.645 15.7078 173.218 16.8907C172.811 18.0736 172.219 19.1111 171.444 20.0031C170.687 20.8758 169.776 21.5642 168.709 22.0684C167.643 22.5532 166.431 22.7956 165.073 22.7956Z" fill="#056842"/>
<path d="M187.686 22.5629H184.952L185.126 18.5196L186.959 8.13524L190.333 7.64075L187.686 22.5629ZM184.457 7.40804C185.233 7.40804 185.96 7.49531 186.639 7.66984C187.317 7.82497 187.967 8.05767 188.588 8.36795L186.959 10.6659C186.493 10.4526 186.067 10.3071 185.679 10.2296C185.291 10.1326 184.835 10.0841 184.312 10.0841C183.478 10.0841 182.731 10.2781 182.072 10.6659C181.413 11.0537 180.85 11.5676 180.385 12.2076C179.939 12.8475 179.599 13.565 179.367 14.3601C179.134 15.1551 179.018 15.9599 179.018 16.7744C179.018 17.8021 179.231 18.5875 179.658 19.1305C180.084 19.6735 180.676 19.9449 181.432 19.9449C182.149 19.9449 182.838 19.7219 183.497 19.2759C184.157 18.8299 184.777 18.1415 185.359 17.2107L186.231 18.1124C185.689 19.1596 185.097 20.0419 184.457 20.7594C183.837 21.4575 183.158 21.9811 182.421 22.3302C181.684 22.6598 180.85 22.8247 179.919 22.8247C178.601 22.8247 177.534 22.3496 176.72 21.3993C175.925 20.4491 175.556 19.0432 175.614 17.1816C175.653 15.766 175.886 14.4667 176.312 13.2838C176.739 12.1009 177.331 11.0731 178.087 10.2005C178.863 9.30846 179.784 8.62004 180.85 8.13524C181.917 7.65044 183.119 7.40804 184.457 7.40804Z" fill="#056842"/>
<path d="M195.296 22.0684L191.922 22.5629L195.791 0.456024H199.078L195.296 22.0684ZM197.769 22.7956C197.013 22.7956 196.285 22.7083 195.587 22.5338C194.909 22.3592 194.269 22.1168 193.668 21.8066L195.267 19.5377C195.733 19.7316 196.159 19.8771 196.547 19.974C196.935 20.071 197.391 20.1195 197.914 20.1195C198.748 20.1195 199.495 19.9256 200.154 19.5377C200.813 19.1499 201.366 18.636 201.812 17.9961C202.278 17.3367 202.627 16.6192 202.859 15.8435C203.092 15.0485 203.208 14.2437 203.208 13.4292C203.208 12.3821 202.995 11.5967 202.568 11.0731C202.161 10.5302 201.57 10.2587 200.794 10.2587C200.077 10.2587 199.388 10.4817 198.729 10.9277C198.089 11.3737 197.468 12.0621 196.867 12.9929L195.995 12.0912C196.557 11.0246 197.148 10.1423 197.769 9.4442C198.389 8.74609 199.068 8.22251 199.805 7.87345C200.561 7.5244 201.395 7.34987 202.307 7.34987C203.625 7.34987 204.682 7.82497 205.477 8.77518C206.292 9.72538 206.67 11.1313 206.612 12.9929C206.573 14.4085 206.34 15.7175 205.914 16.9198C205.487 18.1027 204.895 19.1402 204.139 20.0322C203.383 20.9049 202.462 21.5836 201.376 22.0684C200.309 22.5532 199.107 22.7956 197.769 22.7956Z" fill="#056842"/>
<path d="M220.353 22.5629H217.619L217.793 18.5196L219.626 8.13524L223 7.64075L220.353 22.5629ZM217.124 7.40804C217.9 7.40804 218.627 7.49531 219.306 7.66984C219.985 7.82497 220.634 8.05767 221.255 8.36795L219.626 10.6659C219.16 10.4526 218.734 10.3071 218.346 10.2296C217.958 10.1326 217.502 10.0841 216.979 10.0841C216.145 10.0841 215.398 10.2781 214.739 10.6659C214.08 11.0537 213.517 11.5676 213.052 12.2076C212.606 12.8475 212.267 13.565 212.034 14.3601C211.801 15.1551 211.685 15.9599 211.685 16.7744C211.685 17.8021 211.898 18.5875 212.325 19.1305C212.751 19.6735 213.343 19.9449 214.099 19.9449C214.817 19.9449 215.505 19.7219 216.164 19.2759C216.824 18.8299 217.444 18.1415 218.026 17.2107L218.899 18.1124C218.356 19.1596 217.764 20.0419 217.124 20.7594C216.504 21.4575 215.825 21.9811 215.088 22.3302C214.351 22.6598 213.517 22.8247 212.587 22.8247C211.268 22.8247 210.201 22.3496 209.387 21.3993C208.592 20.4491 208.223 19.0432 208.281 17.1816C208.32 15.766 208.553 14.4667 208.98 13.2838C209.406 12.1009 209.998 11.0731 210.754 10.2005C211.53 9.30846 212.451 8.62004 213.517 8.13524C214.584 7.65044 215.786 7.40804 217.124 7.40804Z" fill="#056842"/>
</svg>
